<?xml version="1.0" encoding="utf-8"?>
<!-- Generator: Adobe Illustrator 26.0.2, SVG Export Plug-In . SVG Version: 6.00 Build 0)  -->
<svg version="1.1" id="Layer_1" xmlns="http://www.w3.org/2000/svg" xmlns:xlink="http://www.w3.org/1999/xlink" x="0px" y="0px"
	 viewBox="0 0 1018.4 848.6" style="enable-background:new 0 0 1018.4 848.6;" xml:space="preserve">
<style type="text/css">
	.st0{fill:#E5A498;}
	.st1{fill:#05313F;}
</style>
<path class="st0" d="M504,638.3c0,0-168.6,153-203.3,181.5S91.7,861.4,25,736.4s72-217.8,72-217.8l97.5-73.8
	c0,0,72.4-67.5,156.7-146.1L198,428.5c0,0-76.2-56.5-152.5-158.1S6.8,111.9,79.4,58.6C121.8,27.5,231.9-3.5,285.5,36
	C333,71,431.4,179.1,453.3,203.3c65-60.5,122.7-114.4,145.6-135.6c64.2-59.7,169-92.3,278.4-3.6s9.6,232.3,9.6,232.3L504,638.3z
	 M932.1,510.4l-177.9-84.7L486,660.1l70.6,42.4c0,0,194.8,98.8,248.5,98.8c53.7,0,149.6-59.3,197.6-146.8
	C1050.7,566.9,932.1,510.4,932.1,510.4z"/>
<g>
	<g>
		<g>
			<g>
				<path class="st1" d="M135.2,298.3c5.6,0,5.4-12.7-0.3-12.7C129.3,285.6,129.5,298.3,135.2,298.3L135.2,298.3z"/>
			</g>
		</g>
		<g>
			<g>
				<path class="st1" d="M174.6,265.9c5.6,0,5.4-12.7-0.3-12.7C168.7,253.2,169,265.9,174.6,265.9L174.6,265.9z"/>
			</g>
		</g>
		<g>
			<g>
				<path class="st1" d="M251.5,195.4c5.6,0,5.4-12.7-0.3-12.7C245.6,182.7,245.9,195.4,251.5,195.4L251.5,195.4z"/>
			</g>
		</g>
		<g>
			<g>
				<path class="st1" d="M288.3,162.7c5.6,0,5.4-12.7-0.3-12.7C282.4,150,282.7,162.7,288.3,162.7L288.3,162.7z"/>
			</g>
		</g>
		<g>
			<g>
				<path class="st1" d="M318,139.3c5.6,0,5.4-12.7-0.3-12.7C312.1,126.6,312.3,139.3,318,139.3L318,139.3z"/>
			</g>
		</g>
		<g>
			<g>
				<path class="st1" d="M160.9,333.4c5.6,0,5.4-12.7-0.3-12.7C154.9,320.7,155.2,333.4,160.9,333.4L160.9,333.4z"/>
			</g>
		</g>
		<g>
			<g>
				<path class="st1" d="M200.7,298.4c5.6,0,5.4-12.7-0.3-12.7C194.7,285.7,195,298.4,200.7,298.4L200.7,298.4z"/>
			</g>
		</g>
		<g>
			<g>
				<path class="st1" d="M237.4,265.6c5.6,0,5.4-12.7-0.3-12.7C231.5,252.9,231.8,265.6,237.4,265.6L237.4,265.6z"/>
			</g>
		</g>
		<g>
			<g>
				<path class="st1" d="M315.7,206c5.6,0,5.4-12.7-0.3-12.7C309.8,193.3,310.1,206,315.7,206L315.7,206z"/>
			</g>
		</g>
		<g>
			<g>
				<path class="st1" d="M344.1,174.9c5.6,0,5.4-12.7-0.3-12.7C338.2,162.2,338.5,174.9,344.1,174.9L344.1,174.9z"/>
			</g>
		</g>
		<g>
			<g>
				<path class="st1" d="M184.5,363c5.6,0,5.4-12.7-0.3-12.7C178.6,350.3,178.8,363,184.5,363L184.5,363z"/>
			</g>
		</g>
		<g>
			<g>
				<path class="st1" d="M223,338.4c5.6,0,5.4-12.7-0.3-12.7C217.1,325.7,217.3,338.4,223,338.4L223,338.4z"/>
			</g>
		</g>
		<g>
			<g>
				<path class="st1" d="M259.2,310.9c5.6,0,5.4-12.7-0.3-12.7C253.2,298.2,253.5,310.9,259.2,310.9L259.2,310.9z"/>
			</g>
		</g>
		<g>
			<g>
				<path class="st1" d="M299.6,270.6c5.6,0,5.4-12.7-0.3-12.7C293.7,257.9,293.9,270.6,299.6,270.6L299.6,270.6z"/>
			</g>
		</g>
		<g>
			<g>
				<path class="st1" d="M335.7,243.1c5.6,0,5.4-12.7-0.3-12.7C329.8,230.4,330.1,243.1,335.7,243.1L335.7,243.1z"/>
			</g>
		</g>
		<g>
			<g>
				<path class="st1" d="M370.8,202.1c5.6,0,5.4-12.7-0.3-12.7C364.9,189.4,365.1,202.1,370.8,202.1L370.8,202.1z"/>
			</g>
		</g>
	</g>
	<g>
		<g>
			<g>
				<path class="st1" d="M206.6,503c5.9,0,5.7-13.4-0.3-13.4C200.4,489.6,200.6,503,206.6,503L206.6,503z"/>
			</g>
		</g>
		<g>
			<g>
				<path class="st1" d="M246.2,539.7c5.9,0,5.7-13.4-0.3-13.4C239.9,526.3,240.2,539.7,246.2,539.7L246.2,539.7z"/>
			</g>
		</g>
		<g>
			<g>
				<path class="st1" d="M330.9,610.3c5.9,0,5.7-13.4-0.3-13.4S324.9,610.3,330.9,610.3L330.9,610.3z"/>
			</g>
		</g>
		<g>
			<g>
				<path class="st1" d="M370.4,644.2c5.9,0,5.7-13.4-0.3-13.4C364.2,630.8,364.4,644.2,370.4,644.2L370.4,644.2z"/>
			</g>
		</g>
		<g>
			<g>
				<path class="st1" d="M407.1,669.6c5.9,0,5.7-13.4-0.3-13.4C400.9,656.2,401.1,669.6,407.1,669.6L407.1,669.6z"/>
			</g>
		</g>
		<g>
			<g>
				<path class="st1" d="M172.8,534.1c5.9,0,5.7-13.4-0.3-13.4C166.5,520.7,166.8,534.1,172.8,534.1L172.8,534.1z"/>
			</g>
		</g>
		<g>
			<g>
				<path class="st1" d="M215.1,570.8c5.9,0,5.7-13.4-0.3-13.4C208.9,557.4,209.1,570.8,215.1,570.8L215.1,570.8z"/>
			</g>
		</g>
		<g>
			<g>
				<path class="st1" d="M254.6,604.6c5.9,0,5.7-13.4-0.3-13.4C248.4,591.2,248.6,604.6,254.6,604.6L254.6,604.6z"/>
			</g>
		</g>
		<g>
			<g>
				<path class="st1" d="M328.1,678.1c5.9,0,5.7-13.4-0.3-13.4S322.1,678.1,328.1,678.1L328.1,678.1z"/>
			</g>
		</g>
		<g>
			<g>
				<path class="st1" d="M364.8,703.5c5.9,0,5.7-13.4-0.3-13.4C358.5,690.1,358.8,703.5,364.8,703.5L364.8,703.5z"/>
			</g>
		</g>
		<g>
			<g>
				<path class="st1" d="M144.5,562.3c5.9,0,5.7-13.4-0.3-13.4C138.3,548.9,138.5,562.3,144.5,562.3L144.5,562.3z"/>
			</g>
		</g>
		<g>
			<g>
				<path class="st1" d="M175.6,599c5.9,0,5.7-13.4-0.3-13.4C169.3,585.6,169.6,599,175.6,599L175.6,599z"/>
			</g>
		</g>
		<g>
			<g>
				<path class="st1" d="M209.5,632.9c5.9,0,5.7-13.4-0.3-13.4S203.5,632.9,209.5,632.9L209.5,632.9z"/>
			</g>
		</g>
		<g>
			<g>
				<path class="st1" d="M257.5,669.6c5.9,0,5.7-13.4-0.3-13.4S251.5,669.6,257.5,669.6L257.5,669.6z"/>
			</g>
		</g>
		<g>
			<g>
				<path class="st1" d="M291.3,703.5c5.9,0,5.7-13.4-0.3-13.4C285.1,690.1,285.4,703.5,291.3,703.5L291.3,703.5z"/>
			</g>
		</g>
		<g>
			<g>
				<path class="st1" d="M339.3,734.5c5.9,0,5.7-13.4-0.3-13.4C333.1,721.1,333.4,734.5,339.3,734.5L339.3,734.5z"/>
			</g>
		</g>
	</g>
	<g>
		<g>
			<path class="st1" d="M539.8,206.5c5.9,0,5.7-13.4-0.3-13.4C533.6,193.1,533.8,206.5,539.8,206.5L539.8,206.5z"/>
		</g>
	</g>
	<g>
		<g>
			<path class="st1" d="M570.9,178.3c5.9,0,5.7-13.4-0.3-13.4S564.9,178.3,570.9,178.3L570.9,178.3z"/>
		</g>
	</g>
	<g>
		<g>
			<path class="st1" d="M576.5,237.6c5.9,0,5.7-13.4-0.3-13.4C570.3,224.2,570.5,237.6,576.5,237.6L576.5,237.6z"/>
		</g>
	</g>
	<g>
		<g>
			<path class="st1" d="M607.6,206.5c5.9,0,5.7-13.4-0.3-13.4C601.3,193.1,601.6,206.5,607.6,206.5L607.6,206.5z"/>
		</g>
	</g>
	<g>
		<g>
			<path class="st1" d="M638.6,178.3c5.9,0,5.7-13.4-0.3-13.4C632.4,164.9,632.6,178.3,638.6,178.3L638.6,178.3z"/>
		</g>
	</g>
	<g>
		<g>
			<path class="st1" d="M616.1,265.8c5.9,0,5.7-13.4-0.3-13.4S610.1,265.8,616.1,265.8L616.1,265.8z"/>
		</g>
	</g>
	<g>
		<g>
			<path class="st1" d="M649.9,240.4c5.9,0,5.7-13.4-0.3-13.4C643.7,227,643.9,240.4,649.9,240.4L649.9,240.4z"/>
		</g>
	</g>
	<g>
		<g>
			<path class="st1" d="M675.3,209.4c5.9,0,5.7-13.4-0.3-13.4C669.1,196,669.4,209.4,675.3,209.4L675.3,209.4z"/>
		</g>
	</g>
	<g>
		<g>
			<path class="st1" d="M661.2,288.4c5.9,0,5.7-13.4-0.3-13.4C655,275,655.2,288.4,661.2,288.4L661.2,288.4z"/>
		</g>
	</g>
	<g>
		<g>
			<path class="st1" d="M692.3,257.4c5.9,0,5.7-13.4-0.3-13.4S686.3,257.4,692.3,257.4L692.3,257.4z"/>
		</g>
	</g>
	<g>
		<g>
			<path class="st1" d="M720.5,231.9c5.9,0,5.7-13.4-0.3-13.4C714.3,218.5,714.5,231.9,720.5,231.9L720.5,231.9z"/>
		</g>
	</g>
	<g>
		<g>
			<path class="st1" d="M692.3,319.5c5.9,0,5.7-13.4-0.3-13.4C686,306.1,686.3,319.5,692.3,319.5L692.3,319.5z"/>
		</g>
	</g>
	<g>
		<g>
			<path class="st1" d="M723.3,288.4c5.9,0,5.7-13.4-0.3-13.4C717.1,275,717.4,288.4,723.3,288.4L723.3,288.4z"/>
		</g>
	</g>
	<g>
		<g>
			<path class="st1" d="M762.9,254.5c5.9,0,5.7-13.4-0.3-13.4C756.6,241.1,756.9,254.5,762.9,254.5L762.9,254.5z"/>
		</g>
	</g>
	<g>
		<g>
			<path class="st1" d="M734.6,353.4c5.9,0,5.7-13.4-0.3-13.4C728.4,340,728.6,353.4,734.6,353.4L734.6,353.4z"/>
		</g>
	</g>
	<g>
		<g>
			<path class="st1" d="M757.2,322.3c5.9,0,5.7-13.4-0.3-13.4C751,308.9,751.2,322.3,757.2,322.3L757.2,322.3z"/>
		</g>
	</g>
	<g>
		<g>
			<path class="st1" d="M785.5,294.1c5.9,0,5.7-13.4-0.3-13.4S779.5,294.1,785.5,294.1L785.5,294.1z"/>
		</g>
	</g>
	<g>
		<g>
			<path class="st1" d="M333.7,423.9c5.9,0,5.7-13.4-0.3-13.4C327.5,410.5,327.7,423.9,333.7,423.9L333.7,423.9z"/>
		</g>
	</g>
	<g>
		<g>
			<path class="st1" d="M378.9,381.6c5.9,0,5.7-13.4-0.3-13.4S372.9,381.6,378.9,381.6L378.9,381.6z"/>
		</g>
	</g>
	<g>
		<g>
			<path class="st1" d="M432.5,339.2c5.9,0,5.7-13.4-0.3-13.4C426.3,325.8,426.5,339.2,432.5,339.2L432.5,339.2z"/>
		</g>
	</g>
	<g>
		<g>
			<path class="st1" d="M477.7,305.4c5.9,0,5.7-13.4-0.3-13.4C471.5,292,471.7,305.4,477.7,305.4L477.7,305.4z"/>
		</g>
	</g>
	<g>
		<g>
			<path class="st1" d="M381.7,460.6c5.9,0,5.7-13.4-0.3-13.4C375.5,447.2,375.7,460.6,381.7,460.6L381.7,460.6z"/>
		</g>
	</g>
	<g>
		<g>
			<path class="st1" d="M469.2,378.8c5.9,0,5.7-13.4-0.3-13.4C463,365.4,463.2,378.8,469.2,378.8L469.2,378.8z"/>
		</g>
	</g>
	<g>
		<g>
			<path class="st1" d="M517.2,333.6c5.9,0,5.7-13.4-0.3-13.4C511,320.2,511.2,333.6,517.2,333.6L517.2,333.6z"/>
		</g>
	</g>
	<g>
		<g>
			<path class="st1" d="M421.2,497.4c5.9,0,5.7-13.4-0.3-13.4C415,484,415.2,497.4,421.2,497.4L421.2,497.4z"/>
		</g>
	</g>
	<g>
		<g>
			<path class="st1" d="M463.6,452.2c5.9,0,5.7-13.4-0.3-13.4C457.3,438.8,457.6,452.2,463.6,452.2L463.6,452.2z"/>
		</g>
	</g>
	<g>
		<g>
			<path class="st1" d="M508.8,407c5.9,0,5.7-13.4-0.3-13.4C502.5,393.6,502.8,407,508.8,407L508.8,407z"/>
		</g>
	</g>
	<g>
		<g>
			<path class="st1" d="M556.8,367.5c5.9,0,5.7-13.4-0.3-13.4C550.5,354.1,550.8,367.5,556.8,367.5L556.8,367.5z"/>
		</g>
	</g>
	<g>
		<g>
			<path class="st1" d="M469.2,519.9c5.9,0,5.7-13.4-0.3-13.4C463,506.5,463.2,519.9,469.2,519.9L469.2,519.9z"/>
		</g>
	</g>
	<g>
		<g>
			<path class="st1" d="M514.4,483.2c5.9,0,5.7-13.4-0.3-13.4C508.2,469.8,508.4,483.2,514.4,483.2L514.4,483.2z"/>
		</g>
	</g>
	<g>
		<g>
			<path class="st1" d="M548.3,438.1c5.9,0,5.7-13.4-0.3-13.4S542.3,438.1,548.3,438.1L548.3,438.1z"/>
		</g>
	</g>
	<g>
		<g>
			<path class="st1" d="M593.5,395.7c5.9,0,5.7-13.4-0.3-13.4C587.2,382.3,587.5,395.7,593.5,395.7L593.5,395.7z"/>
		</g>
	</g>
	<g>
		<g>
			<path class="st1" d="M500.3,553.8c5.9,0,5.7-13.4-0.3-13.4S494.3,553.8,500.3,553.8L500.3,553.8z"/>
		</g>
	</g>
	<g>
		<g>
			<path class="st1" d="M548.3,505.8c5.9,0,5.7-13.4-0.3-13.4S542.3,505.8,548.3,505.8L548.3,505.8z"/>
		</g>
	</g>
	<g>
		<g>
			<path class="st1" d="M587.8,471.9c5.9,0,5.7-13.4-0.3-13.4C581.6,458.5,581.8,471.9,587.8,471.9L587.8,471.9z"/>
		</g>
	</g>
	<g>
		<g>
			<path class="st1" d="M633,421.1c5.9,0,5.7-13.4-0.3-13.4C626.7,407.7,627,421.1,633,421.1L633,421.1z"/>
		</g>
	</g>
	<g>
		<g>
			<path class="st1" d="M573.7,666.8c5.9,0,5.7-13.4-0.3-13.4C567.5,653.4,567.7,666.8,573.7,666.8L573.7,666.8z"/>
		</g>
	</g>
	<g>
		<g>
			<path class="st1" d="M613.2,632.9c5.9,0,5.7-13.4-0.3-13.4C607,619.5,607.2,632.9,613.2,632.9L613.2,632.9z"/>
		</g>
	</g>
	<g>
		<g>
			<path class="st1" d="M649.9,601.8c5.9,0,5.7-13.4-0.3-13.4C643.7,588.4,643.9,601.8,649.9,601.8L649.9,601.8z"/>
		</g>
	</g>
	<g>
		<g>
			<path class="st1" d="M731.8,531.2c5.9,0,5.7-13.4-0.3-13.4C725.6,517.8,725.8,531.2,731.8,531.2L731.8,531.2z"/>
		</g>
	</g>
	<g>
		<g>
			<path class="st1" d="M765.7,497.4c5.9,0,5.7-13.4-0.3-13.4C759.5,484,759.7,497.4,765.7,497.4L765.7,497.4z"/>
		</g>
	</g>
	<g>
		<g>
			<path class="st1" d="M618.9,689.4c5.9,0,5.7-13.4-0.3-13.4S612.9,689.4,618.9,689.4L618.9,689.4z"/>
		</g>
	</g>
	<g>
		<g>
			<path class="st1" d="M655.6,652.6c5.9,0,5.7-13.4-0.3-13.4S649.6,652.6,655.6,652.6L655.6,652.6z"/>
		</g>
	</g>
	<g>
		<g>
			<path class="st1" d="M740.3,584.9c5.9,0,5.7-13.4-0.3-13.4S734.3,584.9,740.3,584.9L740.3,584.9z"/>
		</g>
	</g>
	<g>
		<g>
			<path class="st1" d="M768.5,556.6c5.9,0,5.7-13.4-0.3-13.4C762.3,543.2,762.5,556.6,768.5,556.6L768.5,556.6z"/>
		</g>
	</g>
	<g>
		<g>
			<path class="st1" d="M805.2,517.1c5.9,0,5.7-13.4-0.3-13.4C799,503.7,799.2,517.1,805.2,517.1L805.2,517.1z"/>
		</g>
	</g>
	<g>
		<g>
			<path class="st1" d="M666.9,711.9c5.9,0,5.7-13.4-0.3-13.4S660.9,711.9,666.9,711.9L666.9,711.9z"/>
		</g>
	</g>
	<g>
		<g>
			<path class="st1" d="M697.9,680.9c5.9,0,5.7-13.4-0.3-13.4C691.7,667.5,691.9,680.9,697.9,680.9L697.9,680.9z"/>
		</g>
	</g>
	<g>
		<g>
			<path class="st1" d="M729,649.8c5.9,0,5.7-13.4-0.3-13.4C722.7,636.4,723,649.8,729,649.8L729,649.8z"/>
		</g>
	</g>
	<g>
		<g>
			<path class="st1" d="M765.7,618.8c5.9,0,5.7-13.4-0.3-13.4C759.5,605.4,759.7,618.8,765.7,618.8L765.7,618.8z"/>
		</g>
	</g>
	<g>
		<g>
			<path class="st1" d="M796.8,579.2c5.9,0,5.7-13.4-0.3-13.4C790.5,565.8,790.8,579.2,796.8,579.2L796.8,579.2z"/>
		</g>
	</g>
	<g>
		<g>
			<path class="st1" d="M844.8,542.5c5.9,0,5.7-13.4-0.3-13.4C838.5,529.1,838.8,542.5,844.8,542.5L844.8,542.5z"/>
		</g>
	</g>
</g>
<path class="st1" d="M402.5,247.8c60.3-55,119.7-110.8,178.4-167.4c5.2-5,8.7,7.7,4.7,11.5c-33,31.9-66.3,63.5-99.9,94.9
	c-59.3,55.5-119.5,110.1-180.4,163.9c-61.1,54-123,107.1-185.6,159.3c-5.6,4.7-8.9-7.9-4.7-11.5c35.3-29.4,70.3-59.1,105.1-89.1
	C281.7,356.4,342.5,302.5,402.5,247.8z M267.6,432.9c6-1,5.4-14.3-0.3-13.4c-10.4,1.7-14.9,12.5-14.2,22.1
	c0.8,12.6,10.9,20.5,20.6,26.8c6.1,4,8.8-8.7,4.2-11.7c-5.5-3.6-12.7-7.7-15.4-14C260.7,438.7,263,433.6,267.6,432.9z M497.7,602
	c1.5-2.8,1.7-6.8-0.2-9.5c-1.7-2.3-4.7-2.6-6.2,0.2c-8.1,14.9-28.1,7.9-38.8,0.5c-14.3-9.8-27.7-21.2-41.2-32.1
	c-22.7-18.4-44.8-37.5-67.3-56.1c-15-12.4-30.3-24.6-45.8-36.5c-5.7-4.4-8.5,8.3-4.2,11.7c26.7,20.6,52.7,42.1,78.5,63.9
	c12.1,10.2,24.2,20.3,36.5,30.2c14.4,11.6,28.7,24.5,44.6,33.9C467.6,616.6,488.6,618.7,497.7,602z M511.2,234.5
	c-8.9-5.3-19-10.4-29.6-9.6c-9,0.7-17.6,5.3-21.8,13.5c-1.5,2.8-1.8,6.8,0.2,9.5c1.6,2.2,4.8,2.6,6.2-0.2
	c9.4-18.2,33.5-6.1,45.7,1.5c17.2,10.7,33.3,23.1,49.1,35.8c29.1,23.3,56.7,48,84.4,72.8c16,14.3,32.2,28.3,48.9,41.8
	c5.6,4.5,8.4-8.2,4.2-11.7c-30.2-24.4-58.4-50.9-87.5-76.5c-15.9-13.9-32.2-27.4-48.7-40.5C546,258,529.2,245.3,511.2,234.5z
	 M206.9,234.9c2.9-1.4,5.8-2.8,8.7-4.2c2.7-1.3,3.4-5.3,2.7-7.9c-0.5-2.2-2.4-5.7-5.2-4.3c-2.9,1.4-5.8,2.8-8.7,4.2
	c-2.7,1.3-3.4,5.3-2.7,7.9C202.2,232.8,204.1,236.3,206.9,234.9z M275.8,233c1.1,0.3,2.3,0.2,3.2-0.7c1-1,1.6-2.4,1.8-3.8
	c0.1-0.9,0.2-1.7,0.3-2.6c0.2-1.6,0.1-3.4-0.5-4.9c-0.4-1-1.4-2.5-2.6-2.9c-1.1-0.3-2.3-0.2-3.2,0.7c-1,1-1.6,2.4-1.8,3.8
	c-0.1,0.9-0.2,1.7-0.3,2.6c-0.2,1.6-0.1,3.4,0.5,4.9C273.7,231.2,274.6,232.6,275.8,233z M291.4,574.5c1.6-2.8,1.6-6.7-0.2-9.5
	c-1.9-2.8-3.7-5.7-5.6-8.5c-1.6-2.4-4.8-2.4-6.2,0.2c-1.6,2.8-1.6,6.7,0.2,9.5c1.9,2.8,3.7,5.7,5.6,8.5
	C286.8,577,290,577,291.4,574.5z M291,639.5c0.8,1,1.8,1.9,3.2,1.9c0.9,0,1.9,0,2.8,0c1.3,0,2.4-1,3.1-2c0.8-1.3,1.3-3.2,1.2-4.8
	s-0.4-3.4-1.4-4.7c-0.8-1-1.8-1.9-3.2-1.9c-0.9,0-1.9,0-2.8,0c-1.3,0-2.4,1-3.1,2c-0.8,1.3-1.3,3.2-1.2,4.8
	C289.7,636.4,290,638.2,291,639.5z M603.1,147c1.2-0.5,2.2-2,2.6-3.1c1-3.1,0.6-6.8-1.8-9.1c-0.9-0.9-1.9-1.9-2.8-2.8
	c-0.8-0.8-2.3-1.1-3.4-0.6c-1.2,0.5-2.2,2-2.6,3.1c-1,3.1-0.6,6.8,1.8,9.1c0.9,0.9,1.9,1.9,2.8,2.8C600.5,147.2,602,147.4,603.1,147
	z M419.4,426c2.8-0.9,5.7-1.8,8.5-2.8c1.2-0.4,2.2-2.1,2.6-3.1c0.6-1.5,0.7-3.6,0.3-5.2c-0.6-2.6-2.4-5.6-5.5-4.5
	c-2.8,0.9-5.7,1.8-8.5,2.8c-1.2,0.4-2.2,2.1-2.6,3.1c-0.6,1.5-0.7,3.6-0.3,5.2C414.5,424.1,416.3,427,419.4,426z M965.2,522.1
	c-6.2-4-12.7-7.6-19.4-10.9c-5.6-2.8-7.1,10.5-2,13c35.8,17.5,71.3,51.1,65.5,94.6c-3.6,26.9-18.7,51.6-35.1,72.7
	c-17.2,22.1-37.5,42.2-59.8,59.2c-40.3,30.6-92.4,52-143.5,41.2c-23-4.9-45.4-13.1-67.2-21.8c-20.7-8.3-41.1-17.4-61.1-27.4
	c-23.3-11.6-45.8-24.6-67.3-39.2c-20.3-13.8-40.1-28.5-60.6-42.2c-4.5-3-9-5.9-13.5-8.7c12.2-10.6,24.4-21.1,36.6-31.7
	c77.3-67.1,154-134.8,229.5-203.9c37.5-34.3,74.7-68.8,111.2-104.1c1.7-1.6,2-4.8,1.4-7.6c25-31.4,46.4-67.5,53.1-107.7
	c3.3-19.9,2.6-40.6-3.1-60.1c-5.8-19.7-15.9-37.9-28.4-54.1C854.5,22.8,774.9-12.2,698.6,4c-41.7,8.8-79.6,31.1-106.3,64.5
	c-3.3,4.1,1.3,14.5,6,8.6c45.3-56.7,124.8-77.4,193.3-56.6c34.6,10.5,66,30.2,90.9,56.3c26.6,27.9,46,63.4,44.1,102.9
	c-2.1,43.8-26.5,84.4-53.4,117.7c-1.4,1.8-2.1,4-1.9,6.2C803.7,368.7,734.1,431.8,664,494.2c-76.4,68-153.7,135.2-231.5,201.6
	c-38.6,33-77.4,65.8-116.4,98.3c-0.9,0.7-1.4,1.8-1.7,3.1c-19.2,11.4-39.3,23.4-60.5,30.7c-37.2,12.8-78.5,10.3-114.6-4.8
	c-37.3-15.6-71-43.8-93.3-77.5c-23.5-35.5-31.5-79.9-21-121.2c10.8-42.3,40.7-78.5,79.4-98.3c4.7-2.4,2.8-14.7-2.5-12
	c-36,18.4-64.4,50-78.9,87.7C7,643.3,8.8,691.7,27.6,732c18.3,39,51.4,71.4,88.5,92.7c35.7,20.4,77.5,28.9,118.2,21
	c30.3-5.9,57.6-21.7,83.9-37.3c0.8-0.5,1.4-1.3,1.8-2.3c0.2-0.1,0.5-0.3,0.7-0.5c57.3-47.8,114.1-96.1,170.7-144.8
	c45.9,28.9,88,63.2,136.2,88.4c21,11,42.5,20.9,64.4,30c23.1,9.6,46.8,18.6,71.2,24.5c24.2,5.8,48.3,5.6,72.5-0.2
	c27.5-6.6,53-19.7,76-36c23.9-16.9,45.1-37.6,63.6-60.2c18.9-23.1,34.8-49,41.1-78.5C1026,585.3,1001,545,965.2,522.1z M844.5,465.2
	c-24.6-11.7-48.2-25.1-71.2-39.7c-6.2-3.9-8.8,8.7-4.2,11.7c23.3,14.7,47.2,28.5,72.1,40.4c25,11.9,50.7,22.2,76.2,32.7
	c5.9,2.4,7.3-10.8,2-13C894.3,487,869,476.9,844.5,465.2z M63.6,302.4c17.9,19.3,36.5,37.9,54.9,56.7c22.4,23,44.8,46,67.2,69
	c2.3,2.3,5.1-0.3,6-2.6c1.2-3,0.5-6.8-1.8-9.1c-36.6-37.6-73.4-75-109.8-112.8C51.5,274,20.6,240.3,11.3,198.9
	c-5.1-23-3-49.3,12.4-68.1c2.1-2.5,2.7-6.1,1.4-9.2c-0.9-2.1-4-4.8-6.1-2.3c-30.4,37.1-20.2,89.8,2.1,128
	C32.8,267.5,47.9,285.4,63.6,302.4z M702.2,555.5c-0.1-2.6-1.3-6.6-4.6-6.6c-1.9,0-3.8,0-5.6,0c-3.1,0-4.4,4.3-4.2,6.8
	c0.1,2.6,1.3,6.6,4.6,6.6c1.9,0,3.8,0,5.6,0C701,562.3,702.3,558,702.2,555.5z M689.1,608.2c-3.2,0.3-4.2,4.1-4.2,6.8
	c0,1.9,0,3.8,0,5.6c0,1.5,0.5,3.4,1.4,4.7c0.7,0.9,1.9,2,3.2,1.9c3.2-0.3,4.2-4.1,4.2-6.8c0-1.9,0-3.8,0-5.6c0-1.5-0.5-3.4-1.4-4.7
	C691.6,609.1,690.4,608.1,689.1,608.2z M744,417.7c1-3.1,0.6-6.8-1.8-9.1c-1.9-1.9-3.8-3.8-5.6-5.6c-2.2-2.2-5.2,0.2-6,2.6
	c-1,3.1-0.6,6.8,1.8,9.1c1.9,1.9,3.8,3.8,5.6,5.6C740.3,422.5,743.2,420,744,417.7z M39.9,108c31-46.3,82.3-77.6,137.2-86.3
	c28.3-4.5,58.6-3.6,85.9,5.7c16.2,5.5,29.6,14.8,41.5,27c12.5,12.7,24.2,26.3,36.2,39.5c28.4,31.2,56.9,62.5,85.3,93.7
	c2.2,2.4,5.1-0.4,6-2.6c1.2-3.1,0.4-6.7-1.8-9.1c-26-28.6-52-57.1-78-85.7c-12.9-14.1-25.6-28.4-38.7-42.4
	c-11.5-12.4-24.1-23.2-39.7-30C246.4,5.9,214.1,3.7,184.7,7.2c-28.4,3.4-56.1,12.5-80.9,26.6c-28.1,16-52.4,38-70.4,64.9
	C30.3,103.4,35.3,114.8,39.9,108z M433.8,628.5c5.7,4.5,8.5-8.3,4.2-11.7c-52.4-41.2-105-82.2-157.5-123.4
	c-16-12.5-31.9-25-47.9-37.6c-5.7-4.5-8.5,8.3-4.2,11.7c52.4,41.2,105,82.2,157.5,123.4C401.9,603.4,417.9,616,433.8,628.5z"/>
</svg>
