<?xml version="1.0" encoding="utf-8"?>
<!-- Generator: Adobe Illustrator 26.0.2, SVG Export Plug-In . SVG Version: 6.00 Build 0)  -->
<svg version="1.1" id="Layer_1" xmlns="http://www.w3.org/2000/svg" xmlns:xlink="http://www.w3.org/1999/xlink" x="0px" y="0px"
	 viewBox="0 0 1195.9 898.8" style="enable-background:new 0 0 1195.9 898.8;" xml:space="preserve">
<style type="text/css">
	.st0{fill:#B8DDEA;}
	.st1{fill:#4F8698;}
	.st2{fill:#05313F;}
</style>
<path class="st0" d="M237.6,747.8l211.5,141c0,0,31.7-10.6,67-28.2c35.2-17.6,514.6-426.5,514.6-426.5l45.8-49.9
	c0,0-59.9-168.6-77.5-210.9S907.4,64,879.2,74.6S375.2,487,375.2,487l-17.6,17.6c0,0,17.6,31.7-3.5,88.1S237.6,747.8,237.6,747.8z"
	/>
<path class="st1" d="M237.6,747.8c0,0,95.2-105.7,116.3-155.1s3.5-88.1,3.5-88.1L174.1,360.1c0,0-38.8-17.6-70.5,0
	S15.5,444.7,8.4,476.4c-7,31.7,3.5,116.3,31.7,133.9C68.4,628,237.6,747.8,237.6,747.8z"/>
<path class="st2" d="M367.3,480.3c50.8-41.9,101.6-83.9,152.4-125.8c72.6-60,145.2-120,218.2-179.6c40.5-33.1,81-66.1,121.5-99
	c5.6-4.6,9,8,4.7,11.5c-15.3,12.5-30.7,24.9-46,37.4c-58,47.2-116,94.5-173.6,142.1c-90.8,75-181.6,149.9-272.4,224.9
	C366.4,496.4,363.1,483.8,367.3,480.3z M880.9,75.5c28.6,2,52.3,19.9,71.2,40.2c9.8,10.5,18.8,21.9,27.7,33.2
	c8.9,11.3,17.1,23.1,21.5,37c0.8,2.7,3.8,4.1,6.1,2.3c2.6-2.1,2.2-6.4,1.4-9.2c-4.6-14.8-13.4-27.6-22.9-39.7
	c-9.4-12-19.1-24-29.5-35.3c-5.4-5.8-11.2-11.4-17.4-16.5c12.4-10.3,24.9-20.7,37.3-31c4-3.3,8.2-6.4,11.9-10
	c8.8-8.4,17.2-17,27.2-24.1c13.5-9.6,36.4-14.5,48.8-0.2c5.3,6.2,9.7-5.3,6-9.6c-11.7-13.6-30.9-15.5-47-9
	c-13.3,5.3-24.6,16.6-34.7,26.4c-11.9,11.6-25,21.8-37.8,32.4c-6.4,5.3-12.9,10.7-19.3,16c-0.7,0.5-1.1,1.3-1.4,2.2
	c-14.6-10.2-31-17.3-49.2-18.5C874.7,61.7,874.8,75.1,880.9,75.5z M1089,41.9c48.8,36.4,90.6,87.9,98.1,150.1
	c0.3,2.6,2.7,5.7,5.5,4.5c3.1-1.2,3.2-5.7,2.9-8.3c-7.9-65-51.2-119.9-102.3-158C1087.4,25.9,1084.6,38.6,1089,41.9z M1195.4,202.7
	c-0.4-2.5-2.7-5.7-5.5-4.5c-3,1.2-3.3,5.7-2.9,8.3c1.9,12.4-8,23.7-16.2,31.8c-10.9,10.8-23,20.3-34.6,30.3
	c-24.4,21-48.7,42.1-73.1,63.1c-15-43.1-31.6-85.8-47.4-128.6c-1-2.6-3.7-4.2-6.1-2.3c-2.5,2.1-2.4,6.5-1.4,9.2
	c21.1,57.2,43.6,114,61.9,172.1c-25.8,22.4-51.5,44.8-77.3,67.2c-3.8,3.3-7.6,6.6-11.4,9.9c-4.1,3.6-0.7,16.2,4.7,11.5
	c26.3-22.8,52.5-45.7,78.8-68.5c3.8-3.3,7.6-6.6,11.4-9.9c0.4-0.3,0.7-0.8,1-1.3c0.3-0.1,0.5-0.3,0.8-0.5c2.6-2.2,2.2-6.4,1.4-9.2
	c-3.9-12.6-8-25.1-12.3-37.6c27.1-23.4,54.1-46.7,81.2-70.1C1169.5,255.4,1200.2,234.6,1195.4,202.7z M1161.6,189.6
	c2.4-2,2.5-6.5,1.4-9.2c-23.5-57-64.2-103.2-112.6-140.6c-5.7-4.4-8.5,8.3-4.2,11.7c46.8,36.2,86.5,80.6,109.3,135.9
	C1156.6,189.9,1159.2,191.6,1161.6,189.6z M1134.1,236.9c13.3-5.3,25.4-13.2,35.6-23.3c3.9-3.8,0.4-16.5-4.7-11.5
	c-9.7,9.6-20.9,16.9-33.6,21.9C1126.2,226.1,1128,239.3,1134.1,236.9z M434.1,624.6c0.2,2.5,1.3,6.7,4.6,6.6c3-0.1,4.5-4.3,4.2-6.8
	c-4.7-51-38-93.9-72.8-129.1c-2.3-2.3-5.1,0.3-6,2.6c-1.2,3-0.5,6.8,1.8,9.1C397.1,538.5,429.8,578.5,434.1,624.6z M848.4,309.6
	c35.3-28.7,70.9-57,107-84.7c4.4-3.3,1.1-15.9-4.7-11.5c-62.7,48.2-124.1,98.1-184.6,149c-57.9,48.7-115.1,98.2-172.7,147.3
	c-34.6,29.5-69.4,58.8-104.4,87.8c-4.2,3.5-0.9,16.1,4.7,11.5c60.9-50.4,120.9-101.9,181-153.3C732.2,406.5,789.7,357.4,848.4,309.6
	z M981.6,197.5c-5.6-4-11.2-7.9-16.9-11.9c-5.9-4.2-8.7,8.5-4.2,11.7c5.6,4,11.2,7.9,16.9,11.9C983.4,213.4,986.1,200.7,981.6,197.5
	z M952.9,486.2c-10.9,9.6-21.9,19.1-32.8,28.6c-28.1,24.4-56.3,48.6-84.7,72.7c-38.3,32.6-76.7,65-115.3,97.1
	c-41.8,34.7-83.8,69.1-126.3,103c-38.2,30.4-76.7,60.4-116.2,89.1c-3.5,2.6-7.1,5.1-10.7,7.7c-30.1-12.5-57.8-29.8-82.2-51.4
	c-5.3-4.7-8.3,8-4.2,11.7c25.7,22.7,55.2,41,87.1,53.8c2.5,1,4.2-0.8,4.9-3.3c37.8-27,74.5-55.4,110.9-84.2
	c42.5-33.6,84.5-67.8,126.2-102.3c39.5-32.7,78.7-65.6,117.7-98.8c30-25.5,59.8-51.1,89.5-76.8c13.3-11.5,27.6-22.6,40.2-35
	c0.2-0.2,0.4-0.3,0.5-0.5C961.7,494,958.3,481.4,952.9,486.2z M337.5,492.5c12.7,2.5,19.1,17.2,22.4,28.3
	c4.5,15.1,5.6,32.3,0.7,47.4c-0.9,2.9-0.8,7.1,1.8,9.1c2.4,1.9,5.1,0.1,6-2.6c6.1-18.9,5.2-40.1-0.5-59
	c-4.1-13.8-12.4-33.2-28.4-36.3C333,478.3,332.1,491.5,337.5,492.5z M134.3,360.7c6.4,1.6,7.4-11.7,2-13
	c-22.1-5.4-41.9,7.7-56.2,23.4c-16.8,18.5-31.8,38.8-47.6,58.2c-2.1,2.6-2.7,6.1-1.4,9.2c0.9,2.1,4,4.8,6.1,2.3
	c14.7-18.1,29-36.7,44.2-54.4C94.5,371.4,112.9,355.5,134.3,360.7z M12,490.2c1.7-7.1-6.5-11.9-8.6-3.4
	c-9.1,38.4,0.6,80.8,25.7,111.3c5.2,6.3,9.6-5.2,6-9.6C12.6,561.1,3.8,524.7,12,490.2z M355.7,828.3c-38.4-26.9-75.8-55.2-112.9-84
	c0.1-0.1,0.2-0.2,0.3-0.2c41.5-36.4,77.2-79.2,105.6-126.5c1.6-2.7,1.7-6.9-0.2-9.5c-1.7-2.3-4.7-2.5-6.2,0.2
	c-28,46.6-63,88.5-103.9,124.4c-1.7,1.4-2.1,4.3-1.7,7c-40.8-31.6-81.3-63.7-122.5-94.8c-21.1-16-42.4-31.7-64.1-46.9
	c-6-4.2-8.7,8.5-4.2,11.7c82.8,58,160.9,122.6,241.5,183.5c21.1,16,42.4,31.7,64.1,46.9C357.5,844.2,360.2,831.5,355.7,828.3z
	 M372.3,824c0.3-2.7-0.2-7.1-3.3-8.2c-3-1-5,2.3-5.3,4.8c-1.5,13.3,0.2,26.3,5.2,38.7c1,2.6,3.7,4.2,6.1,2.3c2.4-2,2.4-6.5,1.4-9.2
	C372.7,843.3,371.3,833.7,372.3,824z M174.2,472.4c-0.3,0.8-0.5,1.7-0.6,2.7c-0.2,0.9-0.4,1.7-0.6,2.6c-1.4,5.7,3.7,9.9,6.8,6.9
	c35.3,18.5,68.3,41.5,101.1,64c40.3,27.5,80,55.9,119.5,84.4c16.7,12,33.3,24.1,50,36.1c5.9,4.2,8.6-8.5,4.2-11.7
	c-33.6-24.2-67-48.5-100.8-72.5c-40.1-28.5-80.3-56.7-121.7-83.2c-15.9-10.2-32-20.3-48.8-29.2c6-34.1,0.1-70.1-16.3-100.6
	c19.2,9.7,36.9,22.8,53.9,35.7c22,16.6,43.3,34.3,64.3,52.1c9.7,8.2,19.3,16.5,29,24.6c5.5,4.6,8.4-8.1,4.2-11.7
	c-40-33.6-79.2-68.8-122.8-97.8c-10.6-7.1-21.6-13.8-33.2-19.1c-2-0.9-3.4,0.1-4.3,1.8c-1-1.4-1.9-2.8-3-4.1c-4.8-6.5-9.4,5.1-6,9.6
	C172.6,394.3,181.6,434.2,174.2,472.4z M161,493.5c-0.9-2.1-3.9-4.8-6.1-2.3c-25.8,30.7-54.4,59-85.4,84.5
	c-4.2,3.5-0.9,16.1,4.7,11.5c31-25.5,59.6-53.8,85.4-84.5C161.7,500.2,162.3,496.6,161,493.5z M517.9,789.5
	c13.6-17.5,13.7-41.9,6.6-62.1c-8-22.7-25.8-40.4-42.5-57c-2.3-2.3-5.1,0.3-6,2.6c-1.2,3-0.5,6.9,1.8,9.1
	c14.4,14.3,29.6,29.1,37.6,48.1c6.9,16.4,7.2,35.6-4,50C508,784.6,512.9,795.9,517.9,789.5z M490.2,814.1c-2.4,2.4-4.8,4.8-7.2,7.2
	c-2.2,2.2-2.7,6.4-1.4,9.2c1.1,2.3,3.7,4.6,6.1,2.3c2.4-2.4,4.8-4.8,7.2-7.2c2.2-2.2,2.7-6.4,1.4-9.2
	C495.3,814.1,492.6,811.8,490.2,814.1z M8.8,473.4c2.9-0.7,6.1,0.9,7.6,3.1c1.6,2.5,4.7,2.3,6.2-0.2c1.7-2.7,1.5-6.8-0.2-9.5
	c-3.6-5.6-9.9-7.9-16.2-6.3c-3,0.7-3.4,6-2.9,8.3C3.9,471.7,5.7,474.2,8.8,473.4z M82,467.8c1.5-1.4,3.2-2.3,5.2-2.8
	c1.2-0.3,2.2-2.1,2.6-3.1c0.6-1.6,0.7-3.5,0.3-5.2c-0.6-2.8-2.4-5.3-5.5-4.5c-7.2,1.9-11.8,8.6-13.2,15.6c-0.5,2.7,0.4,7.1,3.3,8.2
	c3.1,1.2,4.8-2.4,5.3-4.8c0-0.2,0.1-0.3,0.1-0.4c0-0.1,0.1-0.2,0.2-0.3c0.2-0.4,0.2-0.4,0.2-0.4s0-0.1,0.1-0.1
	C81.1,468.7,81.2,468.6,82,467.8z M95.4,593.6c-5.9-4.3-8.6,8.4-4.2,11.7c19,13.9,37.9,27.7,56.9,41.6c5.9,4.3,8.6-8.4,4.2-11.7
	C133.3,621.3,114.4,607.5,95.4,593.6z M274.9,562.2c-30.3-19.2-60.5-38.5-90.8-57.7c-6.2-3.9-8.8,8.7-4.2,11.7
	c30.3,19.2,60.5,38.5,90.8,57.7C276.9,577.8,279.6,565.1,274.9,562.2z M176.2,657.4c-0.8-0.8-2.3-1.1-3.4-0.6
	c-1.2,0.5-2.2,2-2.6,3.1c-1,3.1-0.6,6.8,1.8,9.1c1.2,1.2,2.3,2.3,3.5,3.5c0.8,0.8,2.3,1.1,3.4,0.6c1.2-0.5,2.2-2,2.6-3.1
	c1-3.1,0.6-6.8-1.8-9.1C178.5,659.7,177.4,658.6,176.2,657.4z"/>
</svg>
